<?xml version="1.0" standalone="no"?>
<!DOCTYPE svg PUBLIC "-//W3C//DTD SVG 20010904//EN"
 "http://www.w3.org/TR/2001/REC-SVG-20010904/DTD/svg10.dtd">
<svg version="1.0" xmlns="http://www.w3.org/2000/svg"
 width="500.000000pt" height="500.000000pt" viewBox="0 0 500.000000 500.000000"
 preserveAspectRatio="xMidYMid meet">

<g transform="translate(0.000000,500.000000) scale(0.100000,-0.100000)"
fill="#000000" stroke="none">
<path d="M3164 4596 c-291 -67 -506 -363 -565 -775 -25 -179 1 -457 62 -657
30 -100 130 -298 188 -375 65 -85 182 -195 252 -237 107 -63 161 -77 299 -77
112 0 133 3 200 28 156 57 283 183 376 372 95 194 131 384 121 634 -15 357
-136 664 -345 877 -168 170 -399 253 -588 210z m-75 -289 c-61 -168 -72 -285
-44 -518 31 -268 93 -516 165 -660 101 -202 284 -348 458 -366 l53 -6 -27 -28
c-36 -38 -147 -94 -215 -109 -44 -10 -71 -10 -129 0 -261 44 -486 323 -575
716 -25 107 -31 407 -11 520 40 232 154 431 299 525 33 22 62 38 63 36 2 -1
-15 -51 -37 -110z"/>
<path d="M1440 4386 c-73 -21 -119 -43 -185 -91 -159 -113 -280 -324 -337
-587 -28 -134 -31 -384 -5 -528 38 -208 117 -412 218 -561 61 -92 192 -219
276 -268 109 -64 179 -84 298 -84 170 0 295 52 415 172 347 347 384 1051 83
1554 -60 101 -194 243 -285 304 -39 25 -107 59 -152 74 -69 25 -96 29 -181 28
-55 0 -120 -6 -145 -13z m-13 -193 c-3 -10 -23 -63 -43 -118 l-39 -100 0 -200
c0 -175 4 -220 28 -358 66 -372 167 -599 330 -736 64 -54 171 -105 256 -122
l65 -12 -35 -29 c-60 -51 -168 -98 -239 -104 -268 -25 -546 249 -650 641 -122
460 -10 936 265 1121 56 38 70 42 62 17z"/>
<path d="M1926 1874 c-14 -13 -16 -59 -16 -350 l0 -334 -30 0 -29 0 -3 107 -3
108 -28 9 c-21 8 -35 7 -55 -5 -26 -14 -27 -18 -30 -117 l-3 -102 -29 0 c-29
0 -30 2 -30 46 0 68 -46 95 -98 58 -17 -12 -22 -25 -22 -59 0 -40 -2 -44 -27
-48 l-28 -4 27 -2 c23 -1 27 -6 30 -38 4 -46 37 -67 84 -54 25 6 29 12 32 49
3 39 5 42 33 42 l29 0 0 -81 c0 -44 4 -89 10 -99 12 -23 52 -33 84 -20 25 9
26 12 26 105 l0 95 30 0 30 0 0 -324 c0 -356 0 -356 60 -356 63 0 60 -20 60
346 l0 334 30 0 30 0 0 -253 c0 -284 2 -292 63 -290 20 1 40 4 46 8 7 4 11 94
11 271 l0 264 30 0 30 0 0 -146 c0 -80 4 -154 10 -164 12 -23 52 -33 84 -20
l26 10 0 160 0 160 35 0 c28 0 35 -4 35 -20 0 -45 92 -48 112 -4 8 17 19 24
40 24 l28 0 0 -134 c0 -146 0 -146 60 -146 53 0 60 18 60 156 l0 124 30 0 30
0 0 -284 c0 -311 -3 -296 60 -296 59 0 60 5 60 306 l0 274 30 0 30 0 0 -174
c0 -113 4 -177 11 -181 6 -4 26 -7 46 -8 58 -2 63 14 63 200 l0 163 29 0 c29
0 30 -2 33 -52 3 -48 6 -54 31 -62 21 -8 35 -7 55 5 22 12 28 23 30 62 3 42 5
47 28 47 13 0 33 -9 44 -20 25 -25 60 -26 91 -1 14 10 36 21 49 24 l25 4 -25
2 c-16 0 -29 10 -35 23 -21 48 -115 46 -115 -2 0 -16 -7 -20 -30 -20 -30 0
-30 1 -30 53 0 59 -19 87 -59 87 -49 0 -61 -16 -61 -80 0 -60 0 -60 -30 -60
l-30 0 0 175 c0 162 -2 177 -20 195 -22 22 -51 26 -81 10 -18 -10 -19 -23 -19
-195 l0 -185 -30 0 -30 0 0 285 c0 272 -1 286 -20 305 -23 23 -58 26 -83 8
-15 -12 -17 -45 -19 -303 l-3 -290 -27 -3 -28 -3 0 135 c0 123 -2 138 -20 156
-22 22 -51 26 -81 10 -17 -10 -19 -23 -19 -155 l0 -145 -29 0 c-24 0 -30 5
-35 30 -12 62 -105 66 -116 5 -4 -25 -10 -30 -35 -30 l-30 0 -3 165 c-2 141
-5 167 -19 178 -25 18 -60 15 -83 -8 -18 -18 -20 -33 -20 -181 l0 -160 -27 3
-28 3 -3 270 c-2 240 -4 271 -19 283 -25 18 -60 15 -83 -8 -19 -19 -20 -33
-20 -285 l0 -265 -30 0 -30 0 0 344 c0 304 -2 345 -16 350 -29 11 -72 6 -88
-10z"/>
<path d="M1384 1215 c-24 -24 -29 -25 -187 -28 l-162 -3 166 -2 c125 -1 173
-6 196 -17 58 -29 120 19 74 57 -31 25 -57 23 -87 -7z"/>
<path d="M3558 1229 c-10 -5 -18 -21 -18 -34 0 -34 52 -51 93 -30 22 11 71 16
181 17 l151 2 -147 3 c-142 3 -149 5 -172 28 -26 26 -59 31 -88 14z"/>
</g>
</svg>
